<?xml version="1.0" encoding="UTF-8" standalone="no"?>
<!-- Created with Inkscape (http://www.inkscape.org/) -->

<svg
   width="512"
   height="512"
   viewBox="0 0 135.46667 135.46667"
   version="1.1"
   id="svg1"
   xml:space="preserve"
   inkscape:version="1.3.2 (091e20e, 2023-11-25, custom)"
   sodipodi:docname="logo.svg"
   inkscape:export-filename="..\MauiPdfGenerator\logo.svg"
   inkscape:export-xdpi="96"
   inkscape:export-ydpi="96"
   xmlns:inkscape="http://www.inkscape.org/namespaces/inkscape"
   xmlns:sodipodi="http://sodipodi.sourceforge.net/DTD/sodipodi-0.dtd"
   xmlns="http://www.w3.org/2000/svg"
   xmlns:svg="http://www.w3.org/2000/svg"><sodipodi:namedview
     id="namedview1"
     pagecolor="#ffffff"
     bordercolor="#000000"
     borderopacity="0.25"
     inkscape:showpageshadow="false"
     inkscape:pageopacity="0.0"
     inkscape:pagecheckerboard="0"
     inkscape:deskcolor="#d1d1d1"
     inkscape:document-units="mm"
     inkscape:zoom="1.8832632"
     inkscape:cx="246.91185"
     inkscape:cy="267.88608"
     inkscape:window-width="2160"
     inkscape:window-height="1334"
     inkscape:window-x="-11"
     inkscape:window-y="-11"
     inkscape:window-maximized="1"
     inkscape:current-layer="g6"><sodipodi:guide
       position="0,135.46667"
       orientation="0,512"
       id="guide1"
       inkscape:locked="false" /><sodipodi:guide
       position="135.46667,135.46667"
       orientation="512,0"
       id="guide2"
       inkscape:locked="false" /><sodipodi:guide
       position="135.46667,0"
       orientation="0,-512"
       id="guide3"
       inkscape:locked="false" /><sodipodi:guide
       position="0,0"
       orientation="-512,0"
       id="guide4"
       inkscape:locked="false" /><sodipodi:guide
       position="26.061459,109.40521"
       orientation="315.00001,0"
       id="guide6"
       inkscape:locked="false" /><sodipodi:guide
       position="26.061459,26.061455"
       orientation="0,315.00001"
       id="guide7"
       inkscape:locked="false" /><sodipodi:guide
       position="109.40522,26.061455"
       orientation="-315.00001,0"
       id="guide8"
       inkscape:locked="false" /><sodipodi:guide
       position="109.40522,109.40521"
       orientation="0,-315.00001"
       id="guide9"
       inkscape:locked="false" /></sodipodi:namedview><defs
     id="defs1" /><g
     inkscape:label="Capa 1"
     inkscape:groupmode="layer"
     id="layer1"><g
       id="g6"
       transform="matrix(4.475298,0,0,4.5204066,-142.29528,-123.72537)"><path
         style="fill:#a895e9;fill-opacity:1;stroke:#512bd4;stroke-opacity:1"
         d="m 38.928869,50.506416 c -1.733946,-1.009931 -0.428245,-6.593391 1.541874,-6.593391 2.772777,0 2.949127,-2.68801 0.190941,-2.910417 -2.216054,-0.178691 -2.22666,-0.197171 -2.138765,-3.726471 0.0932,-3.74241 6.822096,-5.191455 6.822096,-1.469116 0,1.865321 0.131326,2.020587 1.709034,2.020587 1.144806,0 1.417549,-0.382184 1.516269,-2.124687 0.08131,-1.43527 5.801536,-2.524299 6.605329,-1.257537 1.36251,2.147291 0.04443,6.557224 -1.959876,6.557224 -2.364613,0 -2.308644,2.725994 0.05872,2.860114 2.078203,0.117738 2.124687,0.194595 2.124687,3.512974 0,3.449999 0.03134,3.41813 -3.356043,3.412883 -3.429929,-0.0053 -3.522308,-0.04934 -3.527175,-1.680892 -0.0084,-2.829268 -2.975381,-3.120488 -3.11979,-0.306222 -0.09755,1.901128 -4.250697,2.996006 -6.467304,1.704951 z"
         id="path5" /><path
         style="fill:#dcd5f6;fill-opacity:1;stroke:#512bd4;stroke-width:1;stroke-linecap:round;stroke-linejoin:round;stroke-dasharray:none;stroke-opacity:1"
         d="m 42.64002,37.958915 -0.02653,8.447465 8.634307,0.389875 -0.140296,-8.883886 -8.467477,0.04654 v 0"
         id="path6" /><path
         d="m 43.690402,45.722203 c 0,-2.245262 0,-4.490524 0,-6.735786 0.444729,0.02302 0.900895,-0.05844 1.335571,0.07031 0.51479,0.426713 0.511137,1.152737 0.546934,1.763687 0.0075,0.679639 -0.02269,1.424776 -0.441456,1.991784 -0.281176,0.331292 -0.911763,-0.03031 -1.095769,0.342827 -0.09139,0.405846 0.04976,0.820635 -0.01815,1.228772 -3.7e-5,0.446133 -2.38e-4,0.892266 -6.8e-5,1.338399 -0.109022,2e-6 -0.218043,6e-6 -0.327065,7e-6 z m 0.327058,-3.533302 c 0.386457,0.01063 0.978064,0.09218 1.103759,-0.396788 0.196833,-0.556024 0.135748,-1.164829 -0.0039,-1.726469 -0.212362,-0.322686 -0.732762,-0.439328 -1.04025,-0.18968 -0.144101,0.342595 -0.01295,0.755507 -0.05959,1.125875 -1e-5,0.395685 2.4e-5,0.791387 -1.9e-5,1.187062 z m 1.975837,3.533302 c 0,-2.245262 0,-4.490524 0,-6.735786 0.44042,0.03422 0.910362,-0.08953 1.324273,0.115784 0.578305,0.58864 0.58742,1.465995 0.679767,2.234445 0.09076,1.27376 0.06077,2.586784 -0.35138,3.806886 -0.158056,0.399184 -0.577942,0.648357 -1.002442,0.585551 -0.216752,-3.96e-4 -0.433496,-0.01681 -0.650218,-0.0069 z m 0.327058,-0.794879 c 0.356051,0.0194 0.820342,0.0588 1.040733,-0.28614 0.428441,-0.985692 0.326778,-2.08664 0.31633,-3.13363 -0.03183,-0.508509 -0.106152,-1.026349 -0.331798,-1.488771 -0.230066,-0.250739 -0.813605,-0.43996 -0.98929,-0.05535 -0.115777,0.40059 0.01557,0.818335 -0.03577,1.225688 0.0019,1.246067 -0.0023,2.492145 -2.06e-4,3.738205 z m 2.183198,0.794879 c 0,-2.245262 0,-4.490524 0,-6.735786 0.555774,0 1.111549,0 1.667323,0 0,0.264959 0,0.529918 0,0.794877 -0.446755,0 -0.89351,0 -1.340265,0 0,0.695327 0,1.390654 0,2.085981 0.386626,0 0.773251,0 1.159877,0 0,0.264959 0,0.529918 0,0.794877 -0.386626,0 -0.773251,0 -1.159877,0 0,1.020017 0,2.040034 0,3.060051 -0.109019,0 -0.218039,0 -0.327058,0 z"
         id="text1"
         style="font-size:5.69992px;font-family:Arial;-inkscape-font-specification:Arial;fill:#ff2a2a;stroke-width:1.46883;stroke-linecap:round;stroke-linejoin:round"
         aria-label="PDF" /></g></g></svg>
